<?xml version="1.0" encoding="UTF-8" standalone="no"?>
<!-- Created with Inkscape (http://www.inkscape.org/) -->

<svg
   version="1.1"
   id="svg1"
   width="267.50171"
   height="261.43057"
   viewBox="0 0 267.50171 261.43061"
   xml:space="preserve"
   xmlns="http://www.w3.org/2000/svg"
   xmlns:svg="http://www.w3.org/2000/svg"><defs
     id="defs1"><style>
      .color {
        fill: #000000;
      }

      @media (prefers-color-scheme: dark) {
        .color {
          fill: #ffffff;
        }
      }
    </style></defs><g
     id="g1"
     transform="translate(-420.7552,-157.06971)"><path
       style="stroke-width:0.503957"
       class="color"
       d="m 537.74176,418.12036 c -2.03261,-0.29667 -4.4516,-0.69369 -5.37551,-0.88227 -0.92395,-0.18858 -2.88939,-0.55405 -4.36764,-0.81223 -9.1944,-1.60566 -24.58555,-7.02557 -34.77022,-12.24419 -7.15443,-3.66589 -19.93352,-12.01998 -20.45144,-13.36973 -0.396,-1.032 1.52705,-3.61912 2.69023,-3.61912 0.37383,0 3.96992,2.1454 7.99125,4.76749 27.80467,18.1301 58.15911,24.79272 91.19138,20.01606 17.57551,-2.54155 39.28835,-11.64262 55.32058,-23.18787 26.96755,-19.42014 45.98054,-49.45925 51.19544,-80.88491 1.54019,-9.28128 1.92718,-28.2664 0.71239,-34.94103 -0.10094,-0.55436 -0.39666,-2.67097 -0.65716,-4.70358 -1.70015,-13.264 -8.52035,-31.72133 -17.09548,-46.26483 -2.41325,-4.09288 -2.64255,-6.46728 -0.72368,-7.49424 1.91382,-1.02424 3.56841,0.96704 8.78608,10.57377 10.75142,19.79559 16.06893,40.64626 16.06893,63.00857 0,43.97434 -22.7576,84.67155 -61.38248,109.76946 -14.16134,9.20186 -34.41951,16.91598 -51.50386,19.61225 -6.05222,0.9552 -32.42933,1.41531 -37.62881,0.6564 z m 5.37556,-21.95806 c -16.17707,-2.45306 -23.83616,-4.73014 -36.12889,-10.74129 -8.80241,-4.3044 -11.35354,-6.36201 -10.53441,-8.49667 0.83581,-2.17805 2.66034,-1.73517 11.692,2.83824 21.99965,11.14002 45.57254,14.28118 67.89648,9.04734 6.95597,-1.63081 14.78106,-4.24599 19.25564,-6.43518 2.27527,-1.11324 4.66186,-1.92083 5.3035,-1.79469 1.55818,0.3063 2.63635,2.12775 2.0948,3.53899 -1.11798,2.91337 -20.46731,9.56314 -33.15957,11.39598 -6.73035,0.97188 -21.83788,1.34203 -26.41955,0.64728 z m -89.84814,-13.93744 c -9.17015,-2.99068 -15.65558,-9.89852 -18.06202,-19.23856 -0.9481,-3.67979 -1.00323,-5.11506 -0.35726,-9.30335 1.84413,-11.95658 10.182,-20.35906 22.16665,-22.3383 4.00097,-0.66074 5.39779,-0.60717 9.22297,0.35368 4.37818,1.09978 7.75091,2.48556 10.8628,4.46324 1.46762,0.93273 2.48753,-0.009 32.46814,-29.98993 l 30.95294,-30.95297 -2.05635,-3.31185 c -2.77705,-4.47267 -3.77584,-10.08388 -2.73583,-15.37014 0.98993,-5.03166 2.04587,-7.10342 5.56828,-10.92478 5.6296,-6.10736 14.46563,-8.41578 22.86604,-5.97371 5.0684,1.47342 10.32422,5.79067 12.53336,10.29519 0.93247,1.90128 1.88551,3.40065 2.11783,3.33191 0.23233,-0.0688 11.14718,-10.70813 24.2552,-23.64304 l 23.83279,-23.51797 -1.7451,-3.34557 c -1.50653,-2.88813 -1.74354,-4.17443 -1.73362,-9.40722 0.0141,-7.30888 1.19146,-10.01161 6.40379,-14.6979 7.73755,-6.95675 19.98935,-6.84205 27.37661,0.25631 8.98928,8.63767 8.61943,21.72771 -0.84932,30.06246 -5.52927,4.86701 -15.13746,6.02324 -21.95751,2.64224 l -3.59372,-1.78154 -25.51207,25.3493 c -24.74767,24.58978 -25.52512,25.44096 -25.94845,28.41012 -0.54185,3.8006 -2.65852,8.63556 -4.49328,10.26359 -1.37454,1.21973 -1.22925,1.38463 18.21286,20.67482 l 19.59849,19.44528 3.35973,-1.86041 c 3.04218,-1.68457 3.99476,-1.8604 10.07914,-1.8604 5.66387,0 7.2148,0.24401 9.87272,1.55324 4.36371,2.14938 8.06306,5.9412 10.35808,10.61697 2.59881,5.29477 2.69133,12.89177 0.21998,18.06721 -2.02752,4.24599 -6.0488,8.2904 -10.37164,10.43116 -2.9032,1.43774 -4.27275,1.66285 -10.07914,1.6566 -5.98671,-0.007 -7.09486,-0.20445 -10.16204,-1.81606 -6.99871,-3.67727 -11.67614,-11.43312 -11.67614,-19.36092 0,-4.12242 1.76597,-9.94463 3.64664,-12.02275 0.94749,-1.04692 -0.54433,-2.70907 -18.47739,-20.58685 -10.72944,-10.69639 -19.63623,-19.56664 -19.79291,-19.71168 -0.15668,-0.14508 -0.67011,0.0418 -1.14101,0.41501 -0.4709,0.37333 -2.48264,1.20965 -4.4706,1.85845 -5.07757,1.65716 -12.2701,1.15562 -16.38143,-1.14227 l -3.0371,-1.69743 -31.24705,31.37002 -31.24705,31.37001 1.26992,1.63419 c 1.91781,2.46787 3.95994,9.69492 3.95994,14.01393 0,7.30269 -3.39536,15.05396 -8.59358,19.61799 -1.33639,1.17337 -4.40433,3.05741 -6.81763,4.18673 -3.62294,1.69541 -5.38548,2.08699 -10.11099,2.24639 -3.54892,0.11969 -6.79883,-0.15779 -8.55467,-0.73044 z m 17.10415,-7.08841 c 12.3975,-6.60778 15.10435,-22.73723 5.43795,-32.40363 -4.89483,-4.89483 -11.79219,-7.15811 -17.94536,-5.88844 -10.2212,2.10911 -16.70895,9.11049 -17.40068,18.7783 -0.43083,6.02153 1.04209,10.35607 5.0241,14.78504 4.83673,5.37959 9.62064,7.45938 16.38183,7.12193 3.42318,-0.17085 5.35046,-0.71336 8.50216,-2.3932 z m 162.26042,-28.85159 c 10.61959,-4.55204 13.29545,-18.11504 5.17584,-26.23464 -5.07736,-5.07732 -12.31933,-6.19696 -18.80561,-2.90743 -12.18235,6.17831 -12.06539,22.56588 0.20476,28.68035 4.22825,2.10704 9.18865,2.27768 13.42501,0.46172 z m -70.73224,-69.95448 c 6.56656,-1.76816 12.12516,-9.03618 12.12516,-15.85396 0,-6.81285 -5.57845,-13.98073 -12.28632,-15.78696 -12.21854,-3.29014 -23.79827,8.22997 -20.25746,20.15319 2.55007,8.58698 11.82096,13.80286 20.41862,11.48773 z m 84.96964,-68.61102 c 8.93274,-2.48017 13.75198,-12.35592 9.80493,-20.09272 -4.54387,-8.90678 -15.40148,-11.25711 -22.78949,-4.93323 -3.91585,3.35182 -5.00424,5.76436 -5.02218,11.13221 -0.0131,3.93908 0.24013,4.88077 1.97112,7.32804 2.37944,3.36416 4.51909,5.03392 8.07249,6.29976 3.24755,1.15689 4.59236,1.2018 7.96313,0.26594 z M 544.40523,346.61087 c -0.15401,-0.14595 -1.64068,-0.44882 -3.30374,-0.67308 -1.66306,-0.22421 -3.77968,-0.55405 -4.70358,-0.73301 -9.79804,-1.89775 -10.75112,-2.2857 -10.75112,-4.37601 0,-0.64864 0.48667,-1.58323 1.08144,-2.07686 0.91025,-0.75543 2.26635,-0.64637 8.56727,0.68901 14.15192,2.99925 29.24458,2.56398 46.99158,-1.35514 4.35187,-0.96104 6.25502,-1.11939 7.22342,-0.60117 1.48456,0.79454 1.73885,2.84832 0.47483,3.83572 -2.85028,2.22653 -24.67777,5.54559 -36.50887,5.55154 -4.83522,0.005 -8.91727,-0.11505 -9.07123,-0.261 z M 429.06417,333.30338 c -0.83712,-1.02208 -3.73644,-10.38938 -5.15795,-16.66455 -3.47796,-15.35315 -4.14479,-35.45182 -1.66084,-50.0597 4.54499,-26.72892 17.97187,-52.40518 37.19309,-71.12452 19.2874,-18.78371 43.27495,-31.33112 69.56805,-36.38965 9.38489,-1.80557 11.83206,-1.99431 25.86978,-1.99525 18.25267,-10e-4 30.9092,2.24318 47.13964,8.35937 13.10082,4.93686 16.62822,7.7531 12.94348,10.33399 -1.37146,0.96061 -1.79096,0.87589 -5.91771,-1.19508 -17.03415,-8.54841 -37.99746,-12.9581 -58.19707,-12.2419 -5.91308,0.20966 -11.35581,0.51161 -12.09497,0.67099 -0.7391,0.15939 -2.85572,0.48896 -4.70358,0.73239 -12.86723,1.69505 -31.20195,8.22427 -44.01223,15.6733 -38.61194,22.4524 -61.81588,60.21632 -63.73651,103.72972 -0.23873,5.40867 -0.24604,11.15378 -0.0161,12.76689 0.2298,1.61312 0.62375,4.89842 0.87552,7.30058 0.5984,5.70973 2.79203,15.80258 4.86445,22.38129 1.99769,6.34129 1.8912,8.11567 -0.50371,8.39406 -0.95555,0.11112 -2.05947,-0.19126 -2.45311,-0.67193 z m 224.28958,-25.69027 c -0.67939,-0.81863 -0.68165,-2.41169 -0.0116,-8.06765 1.00544,-8.48401 0.50521,-23.49148 -1.01281,-30.38365 -0.58252,-2.64471 -1.98896,-7.4827 -3.12544,-10.75106 -2.72419,-7.83452 -2.94805,-9.19102 -1.68916,-10.23583 1.62571,-1.34924 3.57764,-0.25963 5.03841,2.81254 1.56937,3.30051 4.3302,13.3023 5.78765,20.96718 1.7957,9.44363 1.10215,29.7719 -1.17805,34.52935 -0.98821,2.06179 -2.63106,2.54877 -3.80926,1.12912 z m -202.96453,-9.10252 c -0.82498,-0.5215 -1.00041,-2.44042 -0.96659,-10.57282 0.11228,-26.98355 10.9149,-52.55998 30.3621,-71.88552 21.83298,-21.69642 52.66664,-32.71942 83.49087,-29.84798 11.28073,1.05086 13.40455,1.47216 23.18203,4.59856 4.06527,1.29986 9.45121,3.39788 11.96878,4.66226 4.12735,2.07288 4.55678,2.47766 4.36764,4.11723 -0.30288,2.62531 -2.14444,2.60238 -8.33414,-0.10387 -6.11905,-2.6754 -14.25679,-5.18702 -22.44907,-6.92865 -7.94624,-1.68936 -27.51661,-1.69451 -35.61293,-0.009 -32.1443,6.69043 -57.50725,25.62426 -71.46137,53.34699 -6.7941,13.49778 -11.11664,32.68078 -10.24928,45.48497 0.4198,6.19736 -0.0343,7.80594 -2.19649,7.78558 -0.60153,-0.006 -1.5472,-0.29698 -2.10155,-0.64743 z"
       id="path1" /></g></svg>
